General

Format                         : MPEG-4
Format profile                 : Base Media
Codec ID                       : isom
File size                      : 110 MiB
Duration                       : 3mn 4s
Overall bit rate mode          : Variable
Overall bit rate               : 5 023 Kbps
Encoded date                   : UTC 2012-08-13 03:55:41
Tagged date                    : UTC 2012-08-13 03:55:41

Video
ID                             : 1
Format                         : AVC
Format/Info                    : Advanced Video Codec
Format profile                 : High@L3.0
Format settings, CABAC         : Yes
Format settings, ReFrames      : 2 frames
Codec ID                       : avc1
Codec ID/Info                  : Advanced Video Coding
Duration                       : 3mn 4s
Bit rate                       : 4 765 Kbps
Maximum bit rate               : 14.5 Mbps
Width                          : 720 pixels
Height                         : 480 pixels
Display aspect ratio           : 4:3
Original display aspect ratio  : 4:3
Frame rate mode                : Constant
Frame rate                     : 29.970 fps
Standard                       : NTSC
Color space                    : YUV
Chroma subsampling             : 4:2:0
Bit depth                      : 8 bits
Scan type                      : Progressive
Bits/(Pixel*Frame)             : 0.460
Stream size                    : 106 MiB (96%)


Audio
ID                             : 2
Format                         : AAC
Format/Info                    : Advanced Audio Codec
Format profile                 : LC
Codec ID                       : 40
Duration                       : 3mn 4s
Bit rate mode                  : Variable
Bit rate                       : 192 Kbps
Maximum bit rate               : 208 Kbps
Channel(s)                     : 2 channels
Channel positions              : Front: L R
Sampling rate                  : 48.0 KHz
Compression mode               : Lossy
Delay relative to video        : -667ms
Stream size                    : 4.23 MiB (4%)